# xmcd
# 
# Track frame offsets:
#     150
#     12542
#     34452
#     51772
#     75672
#     96710
#     113738
#     132640
#     151546
#     163953
# 
# Disc length: 2495
# 
# Revision: 0
# Processed by: cddbd v1.5.2PL0 Copyright (c) Steve Scherf et al.
# Submitted via: fre:ac v1.0.31
# 
DISCID=8609bd0a
DTITLE=Urban Folk Quartet - The Escape
DYEAR=2015
DGENRE=Folk
TTITLE0=Boat Up The River
TTITLE1=The Escape
TTITLE2=Upward Spiral/Brink
TTITLE3=Resiste
TTITLE4=The On On/The Getaway/Control Zed
TTITLE5=Five Hundred Miles
TTITLE6=Barnstorming/The Breakthrough
TTITLE7=The Snows They Melt The Soonest
TTITLE8=The Beginning Of The End
TTITLE9=The Language Barrier
EXTD=
EXTT0=
EXTT1=
EXTT2=
EXTT3=
EXTT4=
EXTT5=
EXTT6=
EXTT7=
EXTT8=
EXTT9=
PLAYORDER=
